<svg xmlns="http://www.w3.org/2000/svg" xmlns:xlink="http://www.w3.org/1999/xlink" width="200" zoomAndPan="magnify" viewBox="0 0 150 37.5" height="50" preserveAspectRatio="xMidYMid meet" version="1.0"><defs><g/><clipPath id="00e4450128"><path d="M 4.6875 3.84375 L 32 3.84375 L 32 33.449219 L 4.6875 33.449219 Z M 4.6875 3.84375 " clip-rule="nonzero"/></clipPath></defs><g fill="#ffffff" fill-opacity="1"><g transform="translate(37.010432, 22.943028)"><g><path d="M 2.765625 -3.703125 L 2.765625 -1.390625 L 6.796875 -1.390625 L 6.796875 0 L 1.09375 0 L 1.09375 -8.4375 L 6.703125 -8.4375 L 6.703125 -7.046875 L 2.765625 -7.046875 L 2.765625 -5.078125 L 6.203125 -5.078125 L 6.203125 -3.703125 Z M 2.765625 -3.703125 "/></g></g></g><g fill="#ffffff" fill-opacity="1"><g transform="translate(44.271663, 22.943028)"><g><path d="M 3.140625 0.125 C 2.640625 0.125 2.195312 0.00390625 1.8125 -0.234375 C 1.425781 -0.484375 1.125 -0.851562 0.90625 -1.34375 C 0.6875 -1.84375 0.578125 -2.457031 0.578125 -3.1875 C 0.578125 -3.914062 0.6875 -4.523438 0.90625 -5.015625 C 1.132812 -5.515625 1.445312 -5.882812 1.84375 -6.125 C 2.238281 -6.363281 2.703125 -6.484375 3.234375 -6.484375 C 3.628906 -6.484375 3.972656 -6.414062 4.265625 -6.28125 C 4.554688 -6.144531 4.800781 -5.929688 5 -5.640625 L 5.109375 -5.671875 L 5.109375 -8.921875 L 6.71875 -8.921875 L 6.71875 0 L 5.109375 0 L 5.109375 -0.828125 L 5 -0.84375 C 4.820312 -0.550781 4.578125 -0.316406 4.265625 -0.140625 C 3.960938 0.0351562 3.585938 0.125 3.140625 0.125 Z M 3.671875 -1.234375 C 4.117188 -1.234375 4.472656 -1.394531 4.734375 -1.71875 C 4.992188 -2.039062 5.125 -2.53125 5.125 -3.1875 C 5.125 -3.84375 4.992188 -4.332031 4.734375 -4.65625 C 4.472656 -4.976562 4.117188 -5.140625 3.671875 -5.140625 C 3.203125 -5.140625 2.84375 -4.976562 2.59375 -4.65625 C 2.34375 -4.34375 2.21875 -3.851562 2.21875 -3.1875 C 2.21875 -2.507812 2.34375 -2.015625 2.59375 -1.703125 C 2.84375 -1.390625 3.203125 -1.234375 3.671875 -1.234375 Z M 3.671875 -1.234375 "/></g></g></g><g fill="#ffffff" fill-opacity="1"><g transform="translate(51.908369, 22.943028)"><g><path d="M 2.921875 0.125 C 2.203125 0.125 1.671875 -0.0664062 1.328125 -0.453125 C 0.984375 -0.847656 0.8125 -1.414062 0.8125 -2.15625 L 0.8125 -6.375 L 2.421875 -6.375 L 2.421875 -2.34375 C 2.421875 -1.957031 2.503906 -1.675781 2.671875 -1.5 C 2.835938 -1.320312 3.097656 -1.234375 3.453125 -1.234375 C 3.890625 -1.234375 4.226562 -1.378906 4.46875 -1.671875 C 4.71875 -1.960938 4.84375 -2.414062 4.84375 -3.03125 L 4.84375 -6.375 L 6.453125 -6.375 L 6.453125 0 L 4.921875 0 L 4.921875 -0.9375 L 4.796875 -0.96875 C 4.585938 -0.601562 4.335938 -0.328125 4.046875 -0.140625 C 3.753906 0.0351562 3.378906 0.125 2.921875 0.125 Z M 2.921875 0.125 "/></g></g></g><g fill="#ffffff" fill-opacity="1"><g transform="translate(59.27935, 22.943028)"><g><path d="M 3.71875 0.125 C 3.101562 0.125 2.554688 0 2.078125 -0.25 C 1.609375 -0.507812 1.238281 -0.890625 0.96875 -1.390625 C 0.707031 -1.890625 0.578125 -2.488281 0.578125 -3.1875 C 0.578125 -3.882812 0.707031 -4.476562 0.96875 -4.96875 C 1.238281 -5.46875 1.609375 -5.84375 2.078125 -6.09375 C 2.546875 -6.351562 3.082031 -6.484375 3.6875 -6.484375 C 5.03125 -6.484375 5.890625 -6 6.265625 -5.03125 L 5.171875 -4.25 L 5.046875 -4.25 C 4.910156 -4.550781 4.738281 -4.773438 4.53125 -4.921875 C 4.320312 -5.066406 4.039062 -5.140625 3.6875 -5.140625 C 3.21875 -5.140625 2.851562 -4.976562 2.59375 -4.65625 C 2.34375 -4.332031 2.21875 -3.84375 2.21875 -3.1875 C 2.21875 -2.53125 2.347656 -2.039062 2.609375 -1.71875 C 2.867188 -1.394531 3.238281 -1.234375 3.71875 -1.234375 C 4.0625 -1.234375 4.351562 -1.328125 4.59375 -1.515625 C 4.832031 -1.703125 5.003906 -1.972656 5.109375 -2.328125 L 5.234375 -2.328125 L 6.375 -1.703125 C 6.207031 -1.171875 5.90625 -0.734375 5.46875 -0.390625 C 5.03125 -0.046875 4.445312 0.125 3.71875 0.125 Z M 3.71875 0.125 "/></g></g></g><g fill="#ffffff" fill-opacity="1"><g transform="translate(65.847385, 22.943028)"><g><path d="M 2.484375 0.125 C 2.078125 0.125 1.722656 0.0507812 1.421875 -0.09375 C 1.117188 -0.25 0.882812 -0.472656 0.71875 -0.765625 C 0.5625 -1.054688 0.484375 -1.40625 0.484375 -1.8125 C 0.484375 -2.1875 0.5625 -2.5 0.71875 -2.75 C 0.882812 -3.007812 1.132812 -3.222656 1.46875 -3.390625 C 1.8125 -3.554688 2.257812 -3.679688 2.8125 -3.765625 C 3.1875 -3.828125 3.472656 -3.894531 3.671875 -3.96875 C 3.867188 -4.039062 4.003906 -4.125 4.078125 -4.21875 C 4.148438 -4.3125 4.1875 -4.429688 4.1875 -4.578125 C 4.1875 -4.773438 4.113281 -4.925781 3.96875 -5.03125 C 3.820312 -5.144531 3.582031 -5.203125 3.25 -5.203125 C 2.894531 -5.203125 2.554688 -5.125 2.234375 -4.96875 C 1.921875 -4.8125 1.648438 -4.601562 1.421875 -4.34375 L 1.296875 -4.34375 L 0.625 -5.359375 C 0.945312 -5.710938 1.34375 -5.988281 1.8125 -6.1875 C 2.28125 -6.382812 2.789062 -6.484375 3.34375 -6.484375 C 4.1875 -6.484375 4.796875 -6.304688 5.171875 -5.953125 C 5.546875 -5.597656 5.734375 -5.09375 5.734375 -4.4375 L 5.734375 -1.65625 C 5.734375 -1.375 5.859375 -1.234375 6.109375 -1.234375 C 6.203125 -1.234375 6.296875 -1.25 6.390625 -1.28125 L 6.46875 -1.265625 L 6.59375 -0.15625 C 6.5 -0.09375 6.375 -0.0390625 6.21875 0 C 6.0625 0.03125 5.890625 0.046875 5.703125 0.046875 C 5.316406 0.046875 5.015625 -0.0234375 4.796875 -0.171875 C 4.585938 -0.316406 4.4375 -0.546875 4.34375 -0.859375 L 4.234375 -0.875 C 3.921875 -0.207031 3.335938 0.125 2.484375 0.125 Z M 2.984375 -1.078125 C 3.359375 -1.078125 3.65625 -1.195312 3.875 -1.4375 C 4.09375 -1.6875 4.203125 -2.035156 4.203125 -2.484375 L 4.203125 -3.125 L 4.09375 -3.15625 C 4 -3.070312 3.875 -3.003906 3.71875 -2.953125 C 3.5625 -2.898438 3.335938 -2.851562 3.046875 -2.8125 C 2.703125 -2.75 2.453125 -2.644531 2.296875 -2.5 C 2.148438 -2.363281 2.078125 -2.164062 2.078125 -1.90625 C 2.078125 -1.632812 2.15625 -1.425781 2.3125 -1.28125 C 2.476562 -1.144531 2.703125 -1.078125 2.984375 -1.078125 Z M 2.984375 -1.078125 "/></g></g></g><g fill="#ffffff" fill-opacity="1"><g transform="translate(72.490489, 22.943028)"><g><path d="M 4.390625 -1.515625 L 4.8125 -0.328125 C 4.632812 -0.191406 4.414062 -0.0820312 4.15625 0 C 3.894531 0.0820312 3.597656 0.125 3.265625 0.125 C 2.578125 0.125 2.050781 -0.0625 1.6875 -0.4375 C 1.332031 -0.8125 1.15625 -1.359375 1.15625 -2.078125 L 1.15625 -5.109375 L 0.1875 -5.109375 L 0.1875 -6.375 L 1.15625 -6.375 L 1.15625 -7.625 L 2.765625 -7.875 L 2.765625 -6.375 L 4.5625 -6.375 L 4.5625 -5.109375 L 2.765625 -5.109375 L 2.765625 -2.1875 C 2.765625 -1.875 2.828125 -1.644531 2.953125 -1.5 C 3.085938 -1.351562 3.28125 -1.28125 3.53125 -1.28125 C 3.8125 -1.28125 4.0625 -1.359375 4.28125 -1.515625 Z M 4.390625 -1.515625 "/></g></g></g><g fill="#ffffff" fill-opacity="1"><g transform="translate(77.441067, 22.943028)"><g><path d="M 1.71875 -7.125 C 1.425781 -7.125 1.1875 -7.210938 1 -7.390625 C 0.820312 -7.566406 0.734375 -7.796875 0.734375 -8.078125 C 0.734375 -8.347656 0.820312 -8.570312 1 -8.75 C 1.1875 -8.925781 1.425781 -9.015625 1.71875 -9.015625 C 1.90625 -9.015625 2.070312 -8.972656 2.21875 -8.890625 C 2.375 -8.804688 2.492188 -8.691406 2.578125 -8.546875 C 2.660156 -8.410156 2.703125 -8.253906 2.703125 -8.078125 C 2.703125 -7.890625 2.660156 -7.722656 2.578125 -7.578125 C 2.492188 -7.441406 2.375 -7.332031 2.21875 -7.25 C 2.070312 -7.164062 1.90625 -7.125 1.71875 -7.125 Z M 0.921875 0 L 0.921875 -6.375 L 2.515625 -6.375 L 2.515625 0 Z M 0.921875 0 "/></g></g></g><g fill="#ffffff" fill-opacity="1"><g transform="translate(80.872386, 22.943028)"><g><path d="M 3.703125 0.125 C 3.078125 0.125 2.523438 0 2.046875 -0.25 C 1.578125 -0.507812 1.210938 -0.882812 0.953125 -1.375 C 0.703125 -1.875 0.578125 -2.476562 0.578125 -3.1875 C 0.578125 -3.882812 0.703125 -4.476562 0.953125 -4.96875 C 1.210938 -5.46875 1.578125 -5.84375 2.046875 -6.09375 C 2.523438 -6.351562 3.078125 -6.484375 3.703125 -6.484375 C 4.328125 -6.484375 4.875 -6.351562 5.34375 -6.09375 C 5.8125 -5.84375 6.175781 -5.46875 6.4375 -4.96875 C 6.707031 -4.476562 6.84375 -3.882812 6.84375 -3.1875 C 6.84375 -2.476562 6.707031 -1.875 6.4375 -1.375 C 6.175781 -0.882812 5.8125 -0.507812 5.34375 -0.25 C 4.875 0 4.328125 0.125 3.703125 0.125 Z M 3.703125 -1.234375 C 4.691406 -1.234375 5.1875 -1.882812 5.1875 -3.1875 C 5.1875 -3.851562 5.054688 -4.34375 4.796875 -4.65625 C 4.546875 -4.976562 4.179688 -5.140625 3.703125 -5.140625 C 2.710938 -5.140625 2.21875 -4.488281 2.21875 -3.1875 C 2.21875 -1.882812 2.710938 -1.234375 3.703125 -1.234375 Z M 3.703125 -1.234375 "/></g></g></g><g fill="#ffffff" fill-opacity="1"><g transform="translate(88.278027, 22.943028)"><g><path d="M 0.921875 0 L 0.921875 -6.375 L 2.453125 -6.375 L 2.453125 -5.4375 L 2.578125 -5.40625 C 2.972656 -6.125 3.613281 -6.484375 4.5 -6.484375 C 5.238281 -6.484375 5.78125 -6.285156 6.125 -5.890625 C 6.46875 -5.492188 6.640625 -4.910156 6.640625 -4.140625 L 6.640625 0 L 5.046875 0 L 5.046875 -3.9375 C 5.046875 -4.363281 4.957031 -4.671875 4.78125 -4.859375 C 4.613281 -5.046875 4.34375 -5.140625 3.96875 -5.140625 C 3.507812 -5.140625 3.148438 -4.988281 2.890625 -4.6875 C 2.640625 -4.394531 2.515625 -3.929688 2.515625 -3.296875 L 2.515625 0 Z M 0.921875 0 "/></g></g></g><g fill="#ffffff" fill-opacity="1"><g transform="translate(95.741434, 22.943028)"><g/></g></g><g fill="#ffffff" fill-opacity="1"><g transform="translate(98.531552, 22.943028)"><g><path d="M 1.71875 -7.125 C 1.425781 -7.125 1.1875 -7.210938 1 -7.390625 C 0.820312 -7.566406 0.734375 -7.796875 0.734375 -8.078125 C 0.734375 -8.347656 0.820312 -8.570312 1 -8.75 C 1.1875 -8.925781 1.425781 -9.015625 1.71875 -9.015625 C 1.90625 -9.015625 2.070312 -8.972656 2.21875 -8.890625 C 2.375 -8.804688 2.492188 -8.691406 2.578125 -8.546875 C 2.660156 -8.410156 2.703125 -8.253906 2.703125 -8.078125 C 2.703125 -7.890625 2.660156 -7.722656 2.578125 -7.578125 C 2.492188 -7.441406 2.375 -7.332031 2.21875 -7.25 C 2.070312 -7.164062 1.90625 -7.125 1.71875 -7.125 Z M 0.921875 0 L 0.921875 -6.375 L 2.515625 -6.375 L 2.515625 0 Z M 0.921875 0 "/></g></g></g><g fill="#ffffff" fill-opacity="1"><g transform="translate(101.962871, 22.943028)"><g><path d="M 0.921875 0 L 0.921875 -6.375 L 2.453125 -6.375 L 2.453125 -5.4375 L 2.578125 -5.40625 C 2.972656 -6.125 3.613281 -6.484375 4.5 -6.484375 C 5.238281 -6.484375 5.78125 -6.285156 6.125 -5.890625 C 6.46875 -5.492188 6.640625 -4.910156 6.640625 -4.140625 L 6.640625 0 L 5.046875 0 L 5.046875 -3.9375 C 5.046875 -4.363281 4.957031 -4.671875 4.78125 -4.859375 C 4.613281 -5.046875 4.34375 -5.140625 3.96875 -5.140625 C 3.507812 -5.140625 3.148438 -4.988281 2.890625 -4.6875 C 2.640625 -4.394531 2.515625 -3.929688 2.515625 -3.296875 L 2.515625 0 Z M 0.921875 0 "/></g></g></g><g fill="#ffffff" fill-opacity="1"><g transform="translate(109.426278, 22.943028)"><g/></g></g><g fill="#ffffff" fill-opacity="1"><g transform="translate(112.216396, 22.943028)"><g><path d="M 2.765625 0 L 1.09375 0 L 1.09375 -8.4375 L 2.765625 -8.4375 Z M 2.765625 0 "/></g></g></g><g fill="#ffffff" fill-opacity="1"><g transform="translate(116.086739, 22.943028)"><g><path d="M 0.921875 0 L 0.921875 -6.375 L 2.453125 -6.375 L 2.453125 -5.4375 L 2.578125 -5.40625 C 2.972656 -6.125 3.613281 -6.484375 4.5 -6.484375 C 5.238281 -6.484375 5.78125 -6.285156 6.125 -5.890625 C 6.46875 -5.492188 6.640625 -4.910156 6.640625 -4.140625 L 6.640625 0 L 5.046875 0 L 5.046875 -3.9375 C 5.046875 -4.363281 4.957031 -4.671875 4.78125 -4.859375 C 4.613281 -5.046875 4.34375 -5.140625 3.96875 -5.140625 C 3.507812 -5.140625 3.148438 -4.988281 2.890625 -4.6875 C 2.640625 -4.394531 2.515625 -3.929688 2.515625 -3.296875 L 2.515625 0 Z M 0.921875 0 "/></g></g></g><g fill="#ffffff" fill-opacity="1"><g transform="translate(123.550146, 22.943028)"><g><path d="M 3.140625 0.125 C 2.640625 0.125 2.195312 0.00390625 1.8125 -0.234375 C 1.425781 -0.484375 1.125 -0.851562 0.90625 -1.34375 C 0.6875 -1.84375 0.578125 -2.457031 0.578125 -3.1875 C 0.578125 -3.914062 0.6875 -4.523438 0.90625 -5.015625 C 1.132812 -5.515625 1.445312 -5.882812 1.84375 -6.125 C 2.238281 -6.363281 2.703125 -6.484375 3.234375 -6.484375 C 3.628906 -6.484375 3.972656 -6.414062 4.265625 -6.28125 C 4.554688 -6.144531 4.800781 -5.929688 5 -5.640625 L 5.109375 -5.671875 L 5.109375 -8.921875 L 6.71875 -8.921875 L 6.71875 0 L 5.109375 0 L 5.109375 -0.828125 L 5 -0.84375 C 4.820312 -0.550781 4.578125 -0.316406 4.265625 -0.140625 C 3.960938 0.0351562 3.585938 0.125 3.140625 0.125 Z M 3.671875 -1.234375 C 4.117188 -1.234375 4.472656 -1.394531 4.734375 -1.71875 C 4.992188 -2.039062 5.125 -2.53125 5.125 -3.1875 C 5.125 -3.84375 4.992188 -4.332031 4.734375 -4.65625 C 4.472656 -4.976562 4.117188 -5.140625 3.671875 -5.140625 C 3.203125 -5.140625 2.84375 -4.976562 2.59375 -4.65625 C 2.34375 -4.34375 2.21875 -3.851562 2.21875 -3.1875 C 2.21875 -2.507812 2.34375 -2.015625 2.59375 -1.703125 C 2.84375 -1.390625 3.203125 -1.234375 3.671875 -1.234375 Z M 3.671875 -1.234375 "/></g></g></g><g fill="#ffffff" fill-opacity="1"><g transform="translate(131.186852, 22.943028)"><g><path d="M 1.71875 -7.125 C 1.425781 -7.125 1.1875 -7.210938 1 -7.390625 C 0.820312 -7.566406 0.734375 -7.796875 0.734375 -8.078125 C 0.734375 -8.347656 0.820312 -8.570312 1 -8.75 C 1.1875 -8.925781 1.425781 -9.015625 1.71875 -9.015625 C 1.90625 -9.015625 2.070312 -8.972656 2.21875 -8.890625 C 2.375 -8.804688 2.492188 -8.691406 2.578125 -8.546875 C 2.660156 -8.410156 2.703125 -8.253906 2.703125 -8.078125 C 2.703125 -7.890625 2.660156 -7.722656 2.578125 -7.578125 C 2.492188 -7.441406 2.375 -7.332031 2.21875 -7.25 C 2.070312 -7.164062 1.90625 -7.125 1.71875 -7.125 Z M 0.921875 0 L 0.921875 -6.375 L 2.515625 -6.375 L 2.515625 0 Z M 0.921875 0 "/></g></g></g><g fill="#ffffff" fill-opacity="1"><g transform="translate(134.618171, 22.943028)"><g><path d="M 2.484375 0.125 C 2.078125 0.125 1.722656 0.0507812 1.421875 -0.09375 C 1.117188 -0.25 0.882812 -0.472656 0.71875 -0.765625 C 0.5625 -1.054688 0.484375 -1.40625 0.484375 -1.8125 C 0.484375 -2.1875 0.5625 -2.5 0.71875 -2.75 C 0.882812 -3.007812 1.132812 -3.222656 1.46875 -3.390625 C 1.8125 -3.554688 2.257812 -3.679688 2.8125 -3.765625 C 3.1875 -3.828125 3.472656 -3.894531 3.671875 -3.96875 C 3.867188 -4.039062 4.003906 -4.125 4.078125 -4.21875 C 4.148438 -4.3125 4.1875 -4.429688 4.1875 -4.578125 C 4.1875 -4.773438 4.113281 -4.925781 3.96875 -5.03125 C 3.820312 -5.144531 3.582031 -5.203125 3.25 -5.203125 C 2.894531 -5.203125 2.554688 -5.125 2.234375 -4.96875 C 1.921875 -4.8125 1.648438 -4.601562 1.421875 -4.34375 L 1.296875 -4.34375 L 0.625 -5.359375 C 0.945312 -5.710938 1.34375 -5.988281 1.8125 -6.1875 C 2.28125 -6.382812 2.789062 -6.484375 3.34375 -6.484375 C 4.1875 -6.484375 4.796875 -6.304688 5.171875 -5.953125 C 5.546875 -5.597656 5.734375 -5.09375 5.734375 -4.4375 L 5.734375 -1.65625 C 5.734375 -1.375 5.859375 -1.234375 6.109375 -1.234375 C 6.203125 -1.234375 6.296875 -1.25 6.390625 -1.28125 L 6.46875 -1.265625 L 6.59375 -0.15625 C 6.5 -0.09375 6.375 -0.0390625 6.21875 0 C 6.0625 0.03125 5.890625 0.046875 5.703125 0.046875 C 5.316406 0.046875 5.015625 -0.0234375 4.796875 -0.171875 C 4.585938 -0.316406 4.4375 -0.546875 4.34375 -0.859375 L 4.234375 -0.875 C 3.921875 -0.207031 3.335938 0.125 2.484375 0.125 Z M 2.984375 -1.078125 C 3.359375 -1.078125 3.65625 -1.195312 3.875 -1.4375 C 4.09375 -1.6875 4.203125 -2.035156 4.203125 -2.484375 L 4.203125 -3.125 L 4.09375 -3.15625 C 4 -3.070312 3.875 -3.003906 3.71875 -2.953125 C 3.5625 -2.898438 3.335938 -2.851562 3.046875 -2.8125 C 2.703125 -2.75 2.453125 -2.644531 2.296875 -2.5 C 2.148438 -2.363281 2.078125 -2.164062 2.078125 -1.90625 C 2.078125 -1.632812 2.15625 -1.425781 2.3125 -1.28125 C 2.476562 -1.144531 2.703125 -1.078125 2.984375 -1.078125 Z M 2.984375 -1.078125 "/></g></g></g><g clip-path="url(#00e4450128)"><path fill="#ffffff" d="M 20.265625 29.332031 C 19.984375 29.355469 19.695312 29.367188 19.402344 29.367188 C 15.160156 29.367188 11.488281 26.917969 9.722656 23.359375 C 9.71875 23.367188 13.308594 15.070312 21.523438 11.480469 C 17.289062 12.554688 14.445312 14.039062 12.53125 15.523438 L 12.519531 15.535156 C 12.042969 15.902344 11.625 16.269531 11.257812 16.632812 C 10.441406 17.371094 9.394531 18.363281 8.628906 19.257812 C 8.613281 19.03125 8.609375 18.800781 8.609375 18.570312 C 8.609375 12.609375 13.441406 7.777344 19.402344 7.777344 C 22.308594 7.777344 24.941406 8.921875 26.882812 10.785156 C 23.292969 19.671875 13.066406 22.707031 13.066406 22.707031 C 22.863281 21.816406 27.265625 17.589844 29.242188 14.121094 C 30.734375 11.5 30.84375 9.3125 30.84375 9.3125 C 28.144531 5.984375 24.023438 3.855469 19.402344 3.855469 C 11.277344 3.855469 4.6875 10.441406 4.6875 18.570312 C 4.6875 26.699219 11.277344 33.285156 19.402344 33.285156 C 21.777344 33.285156 24.019531 32.726562 26.007812 31.726562 C 27.359375 31.046875 28.589844 30.164062 29.664062 29.117188 C 33.039062 25.535156 31.753906 21.472656 31.753906 21.472656 C 27.890625 29.472656 20.265625 29.332031 20.265625 29.332031 " fill-opacity="1" fill-rule="evenodd"/></g></svg>